<svg xmlns="http://www.w3.org/2000/svg" height="20" width="20"><path d="M10 17.812q-.604 0-1.031-.427-.427-.427-.427-1.031h2.916q0 .604-.427 1.031-.427.427-1.031.427Zm-2.917-2.5v-1.395h5.834v1.395Zm-.333-2.437q-1.25-.771-1.917-2.063-.666-1.291-.666-2.77 0-2.438 1.698-4.136Q7.562 2.208 10 2.208q2.438 0 4.135 1.698 1.698 1.698 1.698 4.136 0 1.479-.666 2.77-.667 1.292-1.917 2.063Zm.458-1.396h5.584q.791-.625 1.218-1.531.428-.906.428-1.906 0-1.854-1.292-3.146Q11.854 3.604 10 3.604q-1.854 0-3.146 1.292-1.292 1.292-1.292 3.146 0 1 .438 1.906.438.906 1.208 1.531Zm2.792 0Z"/></svg>