<svg xmlns="http://www.w3.org/2000/svg" height="20" width="20"><path d="M10 18.708q-.688 0-1.167-.51-.479-.51-.479-1.26h3.292q0 .75-.49 1.26-.489.51-1.156.51Zm-3.104-2.875v-1.666h6.208v1.666Zm-.313-2.771q-1.395-.854-2.187-2.302-.792-1.448-.792-3.093 0-2.667 1.865-4.521Q7.333 1.292 10 1.292t4.531 1.854Q16.396 5 16.396 7.667q0 1.666-.792 3.104-.792 1.437-2.187 2.291Zm.646-2.041h5.542q.75-.604 1.167-1.479.416-.875.416-1.875 0-1.834-1.26-3.084-1.261-1.25-3.094-1.25t-3.094 1.25q-1.26 1.25-1.26 3.084 0 1 .416 1.875.417.875 1.167 1.479Zm2.771 0Z"/></svg>